# Blender 4.4.3
# www.blender.org
mtllib campfire_log.mtl
o CampfireLog
v -1.000000 0.125000 0.125000
v -1.000000 0.375000 0.125000
v -1.000000 0.125000 -0.125000
v -1.000000 0.375000 -0.125000
v 1.000000 0.125000 0.125000
v 1.000000 0.375000 0.125000
v 1.000000 0.125000 -0.125000
v 1.000000 0.375000 -0.125000
v 0.125000 0.125000 1.000000
v 0.125000 0.375000 1.000000
v -0.125000 0.125000 1.000000
v -0.125000 0.375000 1.000000
v 0.125000 0.125000 -1.000000
v 0.125000 0.375000 -1.000000
v -0.125000 0.125000 -1.000000
v -0.125000 0.375000 -1.000000
v 0.795495 0.125000 0.618718
v 0.795495 0.375000 0.618718
v 0.618718 0.125000 0.795495
v 0.618718 0.375000 0.795495
v -0.618718 0.125000 -0.795495
v -0.618718 0.375000 -0.795495
v -0.795495 0.125000 -0.618718
v -0.795495 0.375000 -0.618718
v -0.618718 0.125000 0.795495
v -0.618718 0.375000 0.795495
v -0.795495 0.125000 0.618718
v -0.795495 0.375000 0.618718
v 0.795495 0.125000 -0.618718
v 0.795495 0.375000 -0.618718
v 0.618718 0.125000 -0.795495
v 0.618718 0.375000 -0.795495
vn -1.0000 -0.0000 -0.0000
vn -0.0000 -0.0000 -1.0000
vn 1.0000 -0.0000 -0.0000
vn -0.0000 -0.0000 1.0000
vn -0.0000 -1.0000 -0.0000
vn -0.0000 1.0000 -0.0000
vn 0.7071 -0.0000 0.7071
vn -0.7071 -0.0000 0.7071
vn -0.7071 -0.0000 -0.7071
vn 0.7071 -0.0000 -0.7071
vt 0.625000 0.000000
vt 0.375000 0.250000
vt 0.375000 0.000000
vt 0.625000 0.250000
vt 0.375000 0.500000
vt 0.625000 0.500000
vt 0.375000 0.750000
vt 0.625000 0.750000
vt 0.375000 1.000000
vt 0.125000 0.750000
vt 0.125000 0.500000
vt 0.875000 0.500000
vt 0.875000 0.750000
vt 0.625000 1.000000
s 0
usemtl CampfireLog
f 2/1/1 3/2/1 1/3/1
f 4/4/2 7/5/2 3/2/2
f 8/6/3 5/7/3 7/5/3
f 6/8/4 1/9/4 5/7/4
f 7/5/5 1/10/5 3/11/5
f 4/12/6 6/8/6 8/6/6
f 10/1/4 11/2/4 9/3/4
f 12/4/1 15/5/1 11/2/1
f 16/6/2 13/7/2 15/5/2
f 14/8/3 9/9/3 13/7/3
f 15/5/5 9/10/5 11/11/5
f 12/12/6 14/8/6 16/6/6
f 18/1/7 19/2/7 17/3/7
f 20/4/8 23/5/8 19/2/8
f 24/6/9 21/7/9 23/5/9
f 22/8/10 17/9/10 21/7/10
f 23/5/5 17/10/5 19/11/5
f 24/6/6 18/13/6 22/8/6
f 26/1/8 27/2/8 25/3/8
f 28/4/9 31/5/9 27/2/9
f 32/6/10 29/7/10 31/5/10
f 30/8/7 25/9/7 29/7/7
f 27/11/5 29/7/5 25/10/5
f 28/12/6 30/8/6 32/6/6
f 2/1/1 4/4/1 3/2/1
f 4/4/2 8/6/2 7/5/2
f 8/6/3 6/8/3 5/7/3
f 6/8/4 2/14/4 1/9/4
f 7/5/5 5/7/5 1/10/5
f 4/12/6 2/13/6 6/8/6
f 10/1/4 12/4/4 11/2/4
f 12/4/1 16/6/1 15/5/1
f 16/6/2 14/8/2 13/7/2
f 14/8/3 10/14/3 9/9/3
f 15/5/5 13/7/5 9/10/5
f 12/12/6 10/13/6 14/8/6
f 18/1/7 20/4/7 19/2/7
f 20/4/8 24/6/8 23/5/8
f 24/6/9 22/8/9 21/7/9
f 22/8/10 18/14/10 17/9/10
f 23/5/5 21/7/5 17/10/5
f 24/6/6 20/12/6 18/13/6
f 26/1/8 28/4/8 27/2/8
f 28/4/9 32/6/9 31/5/9
f 32/6/10 30/8/10 29/7/10
f 30/8/7 26/14/7 25/9/7
f 27/11/5 31/5/5 29/7/5
f 28/12/6 26/13/6 30/8/6
