# Blender 3.6.0
# www.blender.org
mtllib dice.mtl
o Dice
v -1.000000 -1.000000 1.000000
v -1.000000 1.000000 1.000000
v -1.000000 -1.000000 -1.000000
v -1.000000 1.000000 -1.000000
v 1.000000 -1.000000 1.000000
v 1.000000 1.000000 1.000000
v 1.000000 -1.000000 -1.000000
v 1.000000 1.000000 -1.000000
vn -1.0000 -0.0000 -0.0000
vn -0.0000 -0.0000 -1.0000
vn 1.0000 -0.0000 -0.0000
vn -0.0000 -0.0000 1.0000
vn -0.0000 -1.0000 -0.0000
vn -0.0000 1.0000 -0.0000
vt 0.750000 0.500000
vt 0.750000 0.750000
vt 0.500000 0.750000
vt 0.500000 0.500000
vt 0.750000 1.000000
vt 0.500000 1.000000
vt 0.250000 0.750000
vt 0.250000 1.000000
vt 0.000000 1.000000
vt 0.000000 0.750000
vt 0.250000 0.500000
vt 0.000000 0.500000
s 0
usemtl Dice
f 1/1/1 2/2/1 4/3/1 3/4/1
f 3/2/2 4/5/2 8/6/2 7/3/2
f 7/7/3 8/8/3 6/9/3 5/10/3
f 5/11/4 6/7/4 2/10/4 1/12/4
f 3/7/5 7/11/5 5/4/5 1/3/5
f 8/3/6 4/6/6 2/8/6 6/7/6
