# Blender 4.4.3
# www.blender.org
mtllib dungeon.mtl
o Плоскость
v -8.000000 0.000000 8.000000
v 8.000000 0.000000 8.000000
v -8.000000 0.000000 -8.000000
v 8.000000 0.000000 -8.000000
vn -0.0000 1.0000 -0.0000
vt 1.000000 0.000000
vt 0.000000 1.000000
vt 0.000000 0.000000
vt 1.000000 1.000000
s 0
f 2/1/1 3/2/1 1/3/1
f 2/1/1 4/4/1 3/2/1
o Плоскость.001
v -8.000000 5.000000 8.000000
v -8.000000 0.000000 8.000000
v -8.000000 5.000000 -8.000000
v -8.000000 0.000000 -8.000000
vn 1.0000 -0.0000 -0.0000
vt 1.000000 0.000000
vt 0.000000 1.000000
vt 0.000000 0.000000
vt 1.000000 1.000000
s 0
f 6/5/2 7/6/2 5/7/2
f 6/5/2 8/8/2 7/6/2
o Плоскость.002
v 7.999997 5.000000 -8.000000
v 7.999998 0.000000 -8.000000
v 8.000003 5.000000 8.000000
v 8.000003 0.000000 8.000000
vn -1.0000 -0.0000 -0.0000
vt 1.000000 0.000000
vt 0.000000 1.000000
vt 0.000000 0.000000
vt 1.000000 1.000000
s 0
f 10/9/3 11/10/3 9/11/3
f 10/9/3 12/12/3 11/10/3
o Плоскость.003
v 8.000000 4.999998 8.000000
v -8.000000 5.000002 8.000000
v 8.000000 4.999998 -8.000000
v -8.000000 5.000002 -8.000000
vn -0.0000 -1.0000 -0.0000
vt 1.000000 0.000000
vt 0.000000 1.000000
vt 0.000000 0.000000
vt 1.000000 1.000000
s 0
f 14/13/4 15/14/4 13/15/4
f 14/13/4 16/16/4 15/14/4
o Плоскость.004
v -8.000000 4.999999 -8.000000
v -8.000000 -0.000001 -8.000000
v 8.000000 5.000001 -8.000000
v 8.000000 0.000001 -8.000000
vn -0.0000 -0.0000 1.0000
vt 1.000000 0.000000
vt 0.000000 1.000000
vt 0.000000 0.000000
vt 1.000000 1.000000
s 0
f 18/17/5 19/18/5 17/19/5
f 18/17/5 20/20/5 19/18/5
o Плоскость.005
v 8.000000 5.000001 8.000000
v 8.000000 0.000001 8.000000
v -8.000000 4.999999 8.000000
v -8.000000 -0.000001 8.000000
vn -0.0000 -0.0000 -1.0000
vt 1.000000 0.000000
vt 0.000000 1.000000
vt 0.000000 0.000000
vt 1.000000 1.000000
s 0
f 22/21/6 23/22/6 21/23/6
f 22/21/6 24/24/6 23/22/6
