# Blender 4.4.3
# www.blender.org
mtllib test_hole.mtl
o Плоскость
v -0.518107 0.000000 0.712915
v 1.006835 0.000000 0.719750
v 0.442261 0.000000 0.319225
v 1.003418 0.000000 -0.323299
v -0.801775 0.000000 -0.042393
v -0.429247 0.000000 0.373908
v -0.678738 0.000000 -0.801118
v -0.231022 0.000000 -0.408741
v 0.049228 0.000000 -1.081368
v 0.209859 0.000000 -0.716332
v 0.408085 0.000000 -0.504436
v 0.962406 0.000000 -0.535195
vn -0.0000 1.0000 -0.0000
vt 0.000000 0.000000
vt 1.000000 0.000000
vt 1.000000 1.000000
vt 0.000000 1.000000
s 0
f 1/1/1 2/2/1 4/3/1 3/4/1
f 1/1/1 3/4/1 6/4/1 5/1/1
f 5/1/1 6/4/1 8/4/1 7/1/1
f 7/1/1 8/4/1 10/4/1 9/1/1
f 3/4/1 4/3/1 12/3/1 11/4/1
